<?xml version="1.0" encoding="UTF-8"?>
<svg xmlns="http://www.w3.org/2000/svg" viewBox="0 0 50 50">
  <defs>
    <style>
      .cls-1 {
        fill: #cf0;
      }
    </style>
  </defs>
  <g id="Capa_3">
    <rect width="50" height="50"/>
  </g>
  <g id="Capa_1">
    <path class="cls-1" d="M24.59,11.98c-.32-1.21-1.5-1.44-2.61-1.35-1.51.12-2.97.89-3.89,2.08-2.33.18-4.6,2.35-5.41,4.45-.08.2-.2.78-.29.9-.06.08-.53.4-.66.52-1.57,1.46-2.59,4.07-2.46,6.21.02.39.25,1.12.23,1.42-.01.19-.18.58-.22.81-.33,1.84.35,3.65,1.52,5.06.13.15.4.35.48.51.17.34.27.93.45,1.33.58,1.35,1.62,2.47,3.02,3,.19.07.87.2.96.27.06.04.36.54.47.67,2,2.36,8.08,3.44,8.48-.74-.05-8.38.08-16.76-.06-25.13ZM20.64,26.36c-.76,1.06-1.58,2.09-2.5,3.02-.01.13.03.04.09.04,1.23-.13,2.5-.57,3.73-.8l1.96,3.11c.06.16.07.66.01.82-.08.26-.86,1.3-1.07,1.6-.23.32-.46.66-.73.95-1.27.11-2.55,0-3.8-.27.72.81,1.6,1.48,2.56,1.97l-.03.1-.63.4-1.02.48c1.26.07,2.44-.07,3.62-.49.39-.14.74-.31,1.11-.49.02.64-.15,1.39-.69,1.8-.83.62-2.53.57-3.51.41-1.23-.21-2.44-.84-3.19-1.84-.02-.11.01-.06.07-.07.25-.07.53-.09.78-.21l.48-.23c-2.54.27-5.01-1.18-5.73-3.67,0-.01-.01-.03-.01-.05-.02-.17-.11-.36-.18-.51-.05-.1-.1-.2-.15-.29-1.3-1.22-2.07-3.28-1.84-5.04,0,0,0,0,0,0,.01-.09.04-.19.05-.27.05-.3.09-.62.12-.93-.39-2.19.04-4.34,1.49-6.16.29-.37.9-.84,1.1-1.16.16-.26.33-.82.48-1.15,1.11-2.3,3.29-4.06,5.89-4.32.36-.04.81-.04,1.16,0l-.51-.21c-.2-.07-.41-.08-.61-.13-.07-.02-.14.03-.11-.08.21-.23.47-.4.74-.54.9-.5,3.18-1.21,3.92-.22.06.07.22.41.22.47v2c-.46-.21-.9-.45-1.37-.63-.69-.26-1.41-.44-2.13-.6.49.53,1.02,1.01,1.38,1.65l-2.71,2.1c1.25-.12,2.51.03,3.74.26l1.18,2.34c-.07.77.21,1.91-.16,2.57-.41.73-1.02,1.46-1.48,2.17l-3.76-1.08,2.06,3.22h0s0,0,0,0Z"/>
    <path class="cls-1" d="M15.91,31.93c0-.12.48-.69.59-.83.45-.55.96-1.06,1.43-1.6-1.26.16-2.54.12-3.79-.06-.56-1.24-1.09-2.53-1.29-3.88l-.24.38c-.37.88-.67,1.78-.82,2.73-.03.05-.1.02-.17-.02h0s0,0-.01,0c-.01,0-.03-.02-.04-.03,0,0-.01,0-.02-.01-.02-.01-.04-.03-.05-.03,0,0-.01,0-.02-.01,0,0,0,0,0,0-.16-.11-.37-.27-.45-.33,0,0,0,0-.01-.01h0c-.15-.14-.73-.87-.76-.97-.03-.1-.05,2.21,1.12,3.74,0,0,.32.45.78.84.25.73.91,2.47,1.38,2.77,0,0,.47-1.11.87-1.46,1.14.69,2.38,1.25,3.68,1.57-.63-.69-1.29-1.37-1.82-2.15-.08-.12-.35-.48-.36-.59h0Z"/>
    <path class="cls-1" d="M15.63,17.69l-1.13-1.6c-.14-.09-1.02,1.5-1.09,1.64-.16.33-.29.9-.46,1.16-.11.17-.57.51-.76.72-.38.43-.72.95-1.04,1.43l1.42.65c0,1.25.1,2.48.25,3.72l1.96-3.06c1.23.07,2.42.37,3.61.64l-1.81-3.02.96-1.46,1.35-1.58-3.13.84-.13-.07s0,0,0,0Z"/>
    <path class="cls-1" d="M40.88,27.04c-.04-.19-.26-.73-.26-.82,0-.2.22-.82.24-1.14.19-2.54-.95-5.61-3.13-7.02-.52-2.28-2.58-4.71-4.91-5.25-.17-.04-.51-.03-.64-.1-.07-.03-.3-.4-.39-.49-.99-1.01-3.15-1.74-4.55-1.59-.85.09-1.59.6-1.71,1.49v25.43c.79,3.56,5.94,2.5,7.99.69.24-.22.64-.8.81-.92.16-.11.82-.21,1.08-.3,1.71-.61,2.75-1.98,3.39-3.61.08-.22.11-.51.22-.71.16-.29.62-.7.85-1.02.91-1.31,1.37-3.06,1.01-4.64h0ZM39.39,21.15c.67,1.52.97,3.21.6,4.85l-1-2.05c.25-.19.41-.5.41-.84,0-.45-.28-.84-.68-.99l.29-1.64.39.67h0,0ZM39.84,26.57l-1.26,1.3c-.14-.12-.3-.22-.49-.26l.22-3.44h.03c.14,0,.27-.03.4-.08l1.11,2.47ZM37.88,19.1c.2.15.76.68.83.89.03.08,0,.3-.02.4-.02.17-.17,1.18-.27,1.66-.03,0-.06,0-.1,0-.13,0-.26.02-.37.07l-1.81-3.17c.16-.14.29-.32.34-.53.49.14,1,.4,1.39.7h0ZM33.2,24.23l-3.57,1.75h0c-.13-.23-.35-.4-.6-.48l.61-4.24s.04,0,.06,0c.26,0,.51-.1.69-.26l2.87,2.33c-.09.15-.14.33-.14.52,0,.13.03.26.07.38h0ZM29.51,27.21l2.5,1.5c-.04.11-.07.24-.07.37,0,.23.07.45.2.62l-2.23,2c-.16-.13-.36-.21-.58-.23l-.35-3.93h0c.21-.07.39-.18.52-.34h0ZM32.13,28.47l-2.47-1.5c.07-.14.11-.3.11-.46,0-.09-.01-.17-.03-.25.62-.26,2.91-1.52,3.6-1.78.12.16.28.28.47.36l-.68,3.19s-.08,0-.13,0c-.36,0-.68.18-.87.46h0ZM33.46,23.08s-.05-.04-.08-.07l-2.79-2.24c.11-.16.17-.36.17-.57,0-.06,0-.11-.01-.17l3.78-1.42c.11.22.3.39.52.49l-.81,3.69h-.05c-.28,0-.54.11-.73.29h0ZM34.41,18.13c0,.07,0,.15.02.21l-3.79,1.36c-.13-.25-.36-.44-.63-.52l.8-3.4s.05,0,.07,0c.31,0,.59-.13.79-.35l2.9,2.13c-.1.16-.16.35-.16.56h0ZM29.73,19.14h-.03c-.26,0-.49.09-.68.25l-2.74-2.28,3.73-1.77c.12.18.3.31.51.39l-.79,3.42h0ZM29.35,21.2c-.05.8-.57,3.45-.64,4.25h0c-.28,0-.54.11-.73.29l-1.71-1.33v-1.94s.13-.15.13-.15l2.45-1.5c.13.17.3.3.51.37ZM28.71,27.57l.34,3.92c-.25.05-.47.19-.62.37l-2.19-1.01,2.1-3.35c.12.05.24.07.38.07h0ZM29.25,33.59s.09,0,.14,0l.51,2.26c-.38.15-.65.52-.67.95l-2.84.24,2.39-3.55c.14.07.3.11.48.11h0ZM29.67,33.51c.27-.11.48-.33.58-.61l3.82,1.25s0,.07,0,.11c0,.16.04.32.11.46l-3.02,1.49c-.19-.27-.51-.44-.86-.44-.04,0-.08,0-.12,0l-.51-2.26h0ZM34.14,33.87l-3.83-1.28v-.06c0-.22-.07-.42-.18-.59l2.24-2.01c.18.13.39.21.63.21.08,0,.15,0,.22-.02l1.35,3.24c-.2.12-.36.3-.44.52h0ZM34.1,24.91s.06,0,.09,0c.17,0,.33-.04.47-.11l2.39,3.15c-.16.19-.26.43-.26.69h0s-2.74.3-2.74.3c-.05-.39-.31-.71-.66-.85l.71-3.19h0ZM34.89,24.64c.22-.19.36-.48.36-.8v-.02l2.1-.32c.12.29.36.52.67.62,0,.05,0,.14,0,.27-.06,1.04-.15,2.12-.25,3.16,0,0,0,.02,0,.03-.19.01-.36.08-.51.18l-2.36-3.12h0ZM35.8,15.74c.35.2,1.49,2.39,1.33,2.56l-.6-.21c-.01-.49-.36-.9-.82-1l.09-1.35ZM35.9,19.1c.55,1.02,1.21,1.99,1.73,3.02.02.04.05.08.07.14-.26.19-.43.5-.43.85,0,.03,0,.07,0,.1l-2.08.31c-.1-.31-.34-.56-.65-.67l.81-3.67s.08,0,.12,0c.15,0,.29-.03.43-.09h0ZM32.1,13.5c.21-.13.95.1,1.18.2.81.32,1.61,1.02,2.19,1.65.04.57-.02,1.15-.09,1.72-.22.02-.43.1-.59.24l-2.97-2.11c.07-.14.11-.3.11-.47,0-.23-.08-.45-.21-.63.11-.2.33-.58.36-.59h0ZM28.11,11.42s.44.03.63.1c1.02.2,2.27.71,2.91,1.55.29.37.03.51-.14.81-.18-.13-.4-.21-.64-.21-.17,0-.34.04-.48.11-.04.02-.08.04-.12.07-.06.04-.11.09-.15.13-.03.03-.06.07-.1.11l-3.65-2.1c.34-.52,1.09-.63,1.72-.57ZM26.22,12.46c0-.07.02-.13.04-.19l3.62,2.09s0,0,0,.01c-.04.11-.05.22-.05.34,0,.1.01.2.04.3l-3.54,1.69-.1-.05s0-4.19,0-4.19ZM26.22,17.59l.1-.05,2.47,2.1c-.1.16-.15.35-.15.55,0,.12.02.23.05.34-.66.37-1.27.83-1.92,1.21-.17.1-.37.24-.56.26v-4.41h0s0,0,0,0ZM26.22,24.86c.08-.02.11.02.17.05.44.23.93.79,1.37,1.12-.08.15-.12.31-.12.49,0,.33.15.63.39.82h0c-.45.77-.92,1.55-1.41,2.3-.1.16-.24.44-.41.5,0,0,0-5.27,0-5.27ZM26.22,36.55v-5.25l.1-.05,1.94.92c-.04.12-.07.24-.07.37,0,.31.13.59.34.78l-2.18,3.15-.14.08h0ZM26.4,37.74c-.04-.1-.12-.28-.03-.36h0s.12-.07.2-.08h0l2.68-.23c.08.33.3.59.6.73l-.42,1.31c-1.17.07-2.59-.11-3.04-1.37h0,0ZM30.07,39.03c-.15.02-.23.04-.32.05l.39-1.2s.1.01.15.01c.29,0,.55-.12.74-.31l1.1.73c-.64.36-1.35.6-2.06.72h0ZM34.59,36.55c-.06.07-.24.09-.33.12-.15.04-.58.13-.71.13h-.91s-.08,0-.22.03c0,0,.06.01.11.03.03,0,.06.02.07.02.05.02.28.09.88.27.1.09-.5.58-.57.64-.16.13-.33.25-.51.36l-1.19-.8c.09-.16.14-.34.14-.53,0-.13-.02-.25-.06-.37l3.04-1.5c.15.17.35.29.58.34-.04.34-.28,1.07-.32,1.26h0ZM33.57,29.98c.25-.16.44-.42.48-.73l2.8-.27c.08.23.23.43.44.56-.03.09-.08.2-.1.24-.49,1.17-1.2,2.31-1.71,3.48-.11-.04-.23-.06-.35-.06-.07,0-.14,0-.2.02l-1.35-3.24h0ZM34.96,36.45l.24-1.13c.55-.04.99-.5.99-1.06,0-.06,0-.12-.02-.18l1.99-1.08c-.45,1.58-1.66,2.89-3.21,3.45h0ZM37.06,33.25c-.14.08-.71.42-.99.54-.07-.15-.18-.28-.32-.38l1.82-3.74c.09.03.18.04.28.04.04,0,.08,0,.12,0l.36,2.7c-.06.13-1.08.73-1.28.85h0ZM38.85,31.89s-.2.23-.25.17l-.32-2.45h0c.37-.17.62-.54.62-.97,0-.19-.05-.37-.14-.52l1.31-1.29c.51,1.67-.09,3.77-1.23,5.05h0Z"/>
  </g>
</svg>