<?xml version="1.0" encoding="UTF-8"?>
<svg id="Capa_1" data-name="Capa 1" xmlns="http://www.w3.org/2000/svg" viewBox="0 0 214 197.34">
  <defs>
    <style>
      .cls-1 {
        fill: #cf0;
      }
    </style>
  </defs>
  <path class="cls-1" d="M103.59,9.24C101.46,1.09,93.48-.48,86.02.14c-10.13.83-19.96,5.98-26.15,13.99-15.69,1.2-30.92,15.8-36.42,29.93-.53,1.36-1.36,5.25-1.93,6.04-.39.55-3.6,2.7-4.46,3.5C6.47,63.42-.36,80.97.48,95.4c.15,2.63,1.66,7.57,1.55,9.58-.07,1.26-1.18,3.9-1.46,5.45-2.24,12.39,2.38,24.57,10.2,34.06.85,1.03,2.71,2.34,3.24,3.4,1.14,2.29,1.83,6.23,3,8.94,3.93,9.1,10.92,16.59,20.31,20.16,1.31.5,5.87,1.37,6.48,1.81.41.3,2.43,3.65,3.14,4.49,13.45,15.9,54.39,23.17,57.08-4.95-.31-56.36.55-112.8-.43-169.1ZM76.98,105.96c-5.11,7.16-10.63,14.09-16.85,20.3-.07.89.17.3.58.25,8.31-.9,16.85-3.85,25.1-5.35l13.21,20.94c.41,1.09.44,4.41.07,5.53-.57,1.75-5.76,8.77-7.18,10.74-1.56,2.17-3.07,4.42-4.92,6.36-8.54.72-17.16,0-25.54-1.81,4.83,5.44,10.77,9.95,17.25,13.27l-.21.69-4.21,2.68-6.86,3.26c8.5.48,16.39-.46,24.39-3.3,2.61-.93,4.99-2.1,7.46-3.32.11,4.33-1.04,9.38-4.67,12.08-5.56,4.14-17.01,3.85-23.6,2.74-8.28-1.39-16.39-5.62-21.49-12.35-.12-.72.1-.39.47-.5,1.66-.5,3.6-.58,5.24-1.4l3.24-1.57c-17.06,1.8-33.73-7.96-38.59-24.67-.05-.1-.08-.21-.1-.34-.14-1.13-.72-2.41-1.22-3.44-.32-.65-.66-1.32-1.01-1.98-8.78-8.24-13.96-22.08-12.41-33.93,0,0,.01.01.02.02.1-.63.25-1.25.36-1.85.37-2.05.62-4.18.82-6.28-2.62-14.71.24-29.19,10-41.48,1.96-2.47,6.05-5.64,7.43-7.83,1.1-1.75,2.19-5.55,3.23-7.72,7.46-15.48,22.12-27.34,39.61-29.07,2.39-.24,5.45-.24,7.79,0l-3.4-1.41c-1.33-.5-2.76-.52-4.12-.86-.46-.12-.92.21-.77-.54,1.4-1.52,3.17-2.66,4.97-3.66,6.07-3.38,21.4-8.15,26.39-1.49.38.5,1.49,2.74,1.49,3.16v13.44c-3.07-1.38-6.04-3.03-9.2-4.24-4.65-1.77-9.52-2.96-14.36-4.05,3.27,3.54,6.86,6.82,9.26,11.07l-18.22,14.14c8.39-.79,16.89.23,25.14,1.74l7.97,15.76c-.45,5.17,1.38,12.83-1.11,17.31-2.74,4.93-6.85,9.83-9.98,14.57l-25.32-7.24,13.87,21.66-.02-.03Z"/>
  <path class="cls-1" d="M45.18,143.47c-.04-.8,3.23-4.65,4-5.6,3.04-3.73,6.48-7.15,9.61-10.79-8.45,1.08-17.06.82-25.49-.4-3.76-8.33-7.35-17.03-8.69-26.14l-1.62,2.53c-2.47,5.91-4.54,12.01-5.5,18.38-.19.36-.68.14-1.13-.16h0s-.06-.04-.08-.06c-.09-.06-.19-.13-.29-.21-.04-.03-.07-.05-.11-.08-.13-.1-.24-.18-.31-.23-.05-.03-.09-.06-.14-.09,0,0-.02,0-.02-.02-1.08-.76-2.5-1.79-3.04-2.23-.03-.02-.06-.05-.08-.07h-.01c-.99-.95-4.92-5.86-5.11-6.53-.19-.68-.37,14.85,7.54,25.17,0,0,2.17,3.01,5.22,5.63,1.71,4.88,6.09,16.62,9.27,18.62,0,0,3.18-7.45,5.84-9.85,7.69,4.66,16.02,8.39,24.78,10.57-4.25-4.66-8.66-9.25-12.22-14.49-.53-.78-2.35-3.23-2.39-3.95h-.03Z"/>
  <path class="cls-1" d="M43.27,47.64l-7.63-10.79c-.93-.63-6.88,10.06-7.35,11.05-1.05,2.2-1.98,6.05-3.12,7.82-.75,1.17-3.84,3.45-5.1,4.85-2.58,2.87-4.84,6.39-6.97,9.61l9.58,4.35c-.06,8.38.7,16.71,1.71,25l13.17-20.57c8.27.5,16.3,2.47,24.32,4.31l-12.21-20.35,6.44-9.8,9.09-10.65-21.06,5.65-.85-.5-.02.02Z"/>
  <path class="cls-1" d="M213.19,110.55c-.28-1.25-1.72-4.89-1.73-5.53-.02-1.37,1.47-5.5,1.62-7.64,1.26-17.07-6.42-37.73-21.06-47.27-3.51-15.33-17.38-31.69-33.01-35.34-1.14-.26-3.45-.21-4.33-.64-.45-.22-2.03-2.7-2.64-3.33-6.63-6.8-21.21-11.69-30.6-10.67-5.74.62-10.69,4.07-11.54,10.02v171.15c5.32,23.95,40,16.81,53.75,4.65,1.64-1.45,4.3-5.38,5.45-6.16,1.1-.73,5.53-1.44,7.24-2.05,11.5-4.09,18.5-13.33,22.82-24.29.57-1.45.75-3.42,1.51-4.8,1.09-1.97,4.19-4.69,5.72-6.89,6.15-8.82,9.19-20.6,6.8-31.23v.02ZM203.17,70.9c4.54,10.2,6.53,21.6,4.02,32.62l-6.74-13.81c1.67-1.3,2.74-3.34,2.74-5.62,0-3.04-1.9-5.64-4.59-6.67l1.95-11.05,2.6,4.52h.02ZM206.19,107.36l-8.5,8.73c-.91-.84-2.04-1.45-3.29-1.73l1.48-23.13h.19c.94,0,1.85-.18,2.67-.52l7.45,16.65ZM193.04,57.15c1.32,1,5.12,4.58,5.61,6.01.18.53-.05,2.02-.13,2.68-.13,1.15-1.12,7.97-1.82,11.15-.21-.02-.43-.03-.64-.03-.88,0-1.72.16-2.5.45l-12.2-21.36c1.1-.92,1.93-2.16,2.31-3.58,3.3.92,6.7,2.68,9.36,4.68h.01ZM161.5,91.62l-24.01,11.8h0c-.89-1.53-2.33-2.7-4.05-3.24l4.1-28.55c.14,0,.28.01.42.01,1.78,0,3.41-.65,4.66-1.73l19.33,15.67c-.58,1.03-.91,2.22-.91,3.49,0,.9.17,1.75.47,2.54h-.01ZM136.7,111.7l16.8,10.11c-.28.77-.44,1.6-.44,2.46,0,1.56.5,3.01,1.35,4.18l-14.98,13.49c-1.09-.87-2.44-1.43-3.91-1.55l-2.35-26.43v-.07c1.39-.37,2.61-1.15,3.52-2.2h0ZM154.34,120.2l-16.6-10.07c.46-.94.72-2,.72-3.12,0-.58-.07-1.15-.2-1.7,4.2-1.77,19.57-10.24,24.2-11.96.81,1.07,1.9,1.91,3.17,2.39l-4.57,21.44c-.28-.03-.56-.05-.85-.05-2.43,0-4.58,1.21-5.86,3.07h0ZM163.28,83.88c-.17-.11-.34-.26-.52-.45l-18.79-15.09c.71-1.11,1.12-2.42,1.12-3.83,0-.38-.03-.75-.09-1.12l25.44-9.58c.75,1.47,2,2.64,3.52,3.3l-5.46,24.84h-.33c-1.89,0-3.61.74-4.89,1.94h0ZM169.67,50.56c0,.5.05.98.14,1.44l-25.53,9.18c-.87-1.67-2.39-2.95-4.23-3.51l5.41-22.91c.15,0,.31.02.47.02,2.1,0,3.98-.9,5.29-2.34l19.53,14.34c-.68,1.09-1.07,2.38-1.07,3.77h0ZM138.14,57.37h-.19c-1.74,0-3.33.62-4.57,1.66l-18.42-15.37,25.12-11.91c.83,1.18,2.02,2.11,3.4,2.61l-5.34,23.01h0ZM135.64,71.26c-.35,5.41-3.83,23.21-4.29,28.61h-.03c-1.9,0-3.64.75-4.92,1.96l-11.52-8.92-.1-13.03.95-1.04,16.49-10.09c.85,1.15,2.04,2.03,3.42,2.51ZM131.28,114.14l2.29,26.37c-1.67.33-3.13,1.25-4.16,2.52l-14.77-6.82,14.11-22.55c.79.31,1.64.47,2.53.48h0ZM134.97,154.65c.31,0,.62-.02.93-.06l3.4,15.18c-2.55,1.02-4.38,3.47-4.48,6.36l-19.11,1.63,16.07-23.87c.96.49,2.05.76,3.2.76h0ZM137.75,154.09c1.8-.76,3.23-2.25,3.91-4.09l25.72,8.42c-.02.24-.04.48-.04.72,0,1.11.25,2.17.71,3.1l-20.31,10.01c-1.29-1.81-3.41-2.99-5.8-2.99-.26,0-.52,0-.78.04l-3.41-15.22h0ZM167.84,156.5l-25.75-8.58c0-.14,0-.27,0-.41,0-1.46-.44-2.82-1.19-3.95l15.06-13.54c1.18.87,2.65,1.39,4.23,1.39.52,0,1.03-.06,1.51-.16l9.09,21.77c-1.34.8-2.39,2.03-2.97,3.49h.01ZM167.59,96.19c.19.02.38.02.58.02,1.14,0,2.23-.27,3.19-.75l16.08,21.19c-1.08,1.25-1.74,2.88-1.74,4.67v.04l-18.42,1.99c-.33-2.61-2.08-4.78-4.45-5.72l4.76-21.45h0ZM172.9,94.42c1.48-1.31,2.41-3.22,2.41-5.35v-.15l14.14-2.16c.79,1.97,2.44,3.5,4.48,4.14.06.37.05.94,0,1.84-.42,7-.99,14.25-1.65,21.24,0,.06,0,.14-.03.23-1.27.1-2.45.54-3.44,1.23l-15.9-21.01h-.01ZM179,34.53c2.33,1.37,10.03,16.07,8.95,17.25l-4.01-1.43c-.09-3.3-2.42-6.04-5.52-6.75l.58-9.07ZM179.66,57.1c3.7,6.86,8.13,13.39,11.67,20.33.12.24.32.57.5.91-1.76,1.3-2.91,3.39-2.91,5.75,0,.23,0,.46.03.68l-14.01,2.06c-.69-2.09-2.32-3.75-4.39-4.49l5.44-24.7c.26.03.53.05.81.05,1.01,0,1.98-.21,2.86-.6h0ZM154.1,19.44c1.42-.87,6.36.7,7.96,1.34,5.47,2.16,10.82,6.89,14.76,11.12.25,3.81-.14,7.74-.58,11.55-1.5.12-2.87.69-3.97,1.59l-19.96-14.2c.48-.96.75-2.04.75-3.19,0-1.58-.51-3.04-1.38-4.23.74-1.34,2.24-3.88,2.42-3.99h0ZM127.25,5.41s2.93.19,4.27.66c6.83,1.34,15.25,4.81,19.59,10.4,1.96,2.52.17,3.42-.91,5.47-1.19-.89-2.67-1.43-4.28-1.43-1.16,0-2.26.28-3.23.77-.25.13-.53.29-.82.49-.41.28-.75.58-1.01.85-.19.19-.42.44-.66.76l-24.53-14.16c2.27-3.51,7.36-4.21,11.58-3.81ZM114.55,12.47c.05-.45.14-.87.25-1.28l24.39,14.08s-.02.06-.03.09c-.24.71-.37,1.48-.37,2.28,0,.69.1,1.36.28,1.99l-23.84,11.39-.68-.36V12.47ZM114.55,46.97l.66-.34,16.64,14.16c-.66,1.08-1.04,2.35-1.04,3.7,0,.8.13,1.57.37,2.29-4.41,2.51-8.52,5.6-12.89,8.14-1.13.66-2.5,1.61-3.75,1.72v-29.69.02ZM114.55,95.9c.54-.12.77.11,1.17.32,2.95,1.57,6.24,5.29,9.25,7.51-.51.98-.79,2.09-.79,3.27,0,2.23,1.03,4.23,2.63,5.54h0c-3.06,5.21-6.17,10.45-9.47,15.51-.69,1.06-1.62,2.99-2.79,3.34,0,0,0-35.49,0-35.49ZM114.55,174.51v-35.33l.67-.36,13.07,6.16c-.3.78-.46,1.63-.46,2.52,0,2.08.89,3.96,2.31,5.26l-14.66,21.18-.93.56h0ZM115.79,182.53c-.24-.69-.78-1.9-.21-2.43v-.06h0s.81-.39,1.37-.45h.03l18-1.54c.52,2.2,2.05,4,4.07,4.89l-2.84,8.82c-7.85.47-17.46-.75-20.44-9.23h.02ZM140.47,191.23c-.99.16-1.56.25-2.16.32l2.6-8.09c.33.05.68.07,1.02.07,1.95,0,3.72-.79,5.01-2.06l7.37,4.91c-4.29,2.4-9.1,4.05-13.85,4.84h.01ZM170.86,174.57c-.38.46-1.59.61-2.21.78-1.01.27-3.87.89-4.75.89h-6.14c-.05,0-.55.06-1.47.17,0,0,.38.09.75.19.23.06.39.12.45.14.34.11,1.9.59,5.92,1.82.65.6-3.34,3.91-3.82,4.3-1.08.87-2.22,1.69-3.42,2.45l-8.03-5.35c.61-1.05.95-2.26.95-3.56,0-.86-.15-1.69-.43-2.46l20.48-10.09c1,1.13,2.35,1.94,3.88,2.27-.29,2.31-1.87,7.23-2.15,8.45h0ZM164,130.32c1.71-1.07,2.93-2.85,3.26-4.92l18.81-1.83c.52,1.58,1.58,2.91,2.96,3.79-.22.58-.56,1.33-.68,1.61-3.33,7.85-8.05,15.54-11.49,23.44-.74-.26-1.54-.4-2.37-.4-.47,0-.93.05-1.37.13l-9.11-21.81h-.01ZM173.36,173.85l1.63-7.6c3.71-.26,6.63-3.35,6.63-7.12,0-.42-.04-.82-.11-1.22l13.41-7.29c-3.02,10.6-11.2,19.42-21.57,23.22h0ZM187.51,152.31c-.91.53-4.77,2.82-6.66,3.62-.5-1-1.24-1.87-2.13-2.53l12.22-25.19c.6.17,1.24.25,1.9.25.28,0,.56-.02.84-.05l2.41,18.19c-.39.85-7.27,4.94-8.58,5.71h0ZM199.56,143.16c-.22.25-1.33,1.56-1.65,1.17l-2.12-16.5h0c2.47-1.12,4.19-3.61,4.19-6.5,0-1.27-.33-2.47-.92-3.5l8.8-8.65c3.43,11.23-.6,25.35-8.3,33.99h0Z"/>
</svg>